name GIL03_free4EmgEnv.mot
datacolumns 51
datarows 10
range 0.58425927 0.59259260
endheader
                time	   rect_fem_l_emgRec	   rect_fem_l_emgEnv	   rect_fem_l_emgAve	   rect_fem_l_emgSDp	   rect_fem_l_emgSDm	   rect_fem_r_emgRec	   rect_fem_r_emgEnv	   rect_fem_r_emgAve	   rect_fem_r_emgSDp	   rect_fem_r_emgSDm	   med_hams_l_emgRec	   med_hams_l_emgEnv	   med_hams_l_emgAve	   med_hams_l_emgSDp	   med_hams_l_emgSDm	   med_hams_r_emgRec	   med_hams_r_emgEnv	   med_hams_r_emgAve	   med_hams_r_emgSDp	   med_hams_r_emgSDm	   lat_hams_l_emgRec	   lat_hams_l_emgEnv	   lat_hams_l_emgAve	   lat_hams_l_emgSDp	   lat_hams_l_emgSDm	   lat_hams_r_emgRec	   lat_hams_r_emgEnv	   lat_hams_r_emgAve	   lat_hams_r_emgSDp	   lat_hams_r_emgSDm	    tib_ant_l_emgRec	    tib_ant_l_emgEnv	    tib_ant_l_emgAve	    tib_ant_l_emgSDp	    tib_ant_l_emgSDm	    tib_ant_r_emgRec	    tib_ant_r_emgEnv	    tib_ant_r_emgAve	    tib_ant_r_emgSDp	    tib_ant_r_emgSDm	    gas_sol_l_emgRec	    gas_sol_l_emgEnv	    gas_sol_l_emgAve	    gas_sol_l_emgSDp	    gas_sol_l_emgSDm	    gas_sol_r_emgRec	    gas_sol_r_emgEnv	    gas_sol_r_emgAve	    gas_sol_r_emgSDp	    gas_sol_r_emgSDm	
          0.58425927	          0.06312373	          0.44822246	          0.37962964	          0.46408556	          0.29517373	          0.22561086	          0.58502463	          0.37559029	          0.57779571	          0.17338488	          0.03201219	          0.11386158	          0.14854212	          0.28152154	          0.01556270	          0.03659861	          0.41938787	          0.27776119	          0.51402535	          0.04149704	          0.11103321	          0.78617349	          0.47770539	          0.59596141	          0.35944937	          0.00034128	          0.59704558	          0.28809232	          0.62213853	         -0.04595390	          0.19810250	          0.88037092	          0.55134338	          0.66653047	          0.43615630	          0.07709873	          0.33726732	          0.28927499	          0.48330401	          0.09524597	          0.05945305	          0.15769472	          0.16325240	          0.21920647	          0.10729833	          0.04157176	          0.02992425	          0.05905822	          0.10394673	          0.01416970	
          0.58518517	          0.07042311	          0.44683219	          0.37930146	          0.46401612	          0.29458679	          0.34869511	          0.59140730	          0.38035521	          0.58533882	          0.17537160	          0.00765061	          0.11117587	          0.14701116	          0.27921981	          0.01480252	          0.00488453	          0.42855013	          0.28327987	          0.52463342	          0.04192631	          0.01171236	          0.78335718	          0.47613862	          0.59461155	          0.35766570	          0.02374835	          0.61028729	          0.29103696	          0.62846464	         -0.04639071	          0.34309622	          0.86899372	          0.54827780	          0.66269594	          0.43385965	          0.03658440	          0.34435553	          0.29460651	          0.48921217	          0.10000084	          0.02908087	          0.15527372	          0.16346188	          0.21948904	          0.10743472	          0.05977417	          0.02963135	          0.05914279	          0.10483756	          0.01344802	
          0.58611107	          0.16677133	          0.44518039	          0.37894869	          0.46392607	          0.29397131	          0.30266562	          0.59757506	          0.38510755	          0.59286857	          0.17734653	          0.00861592	          0.10850718	          0.14550996	          0.27695566	          0.01406425	          0.03104610	          0.43782255	          0.28879055	          0.53523482	          0.04234628	          0.18846428	          0.78030526	          0.47459263	          0.59330289	          0.35588236	          0.04025222	          0.62325705	          0.29394090	          0.63469619	         -0.04681438	          0.30421711	          0.85726561	          0.54519534	          0.65884822	          0.43154246	          0.16271642	          0.35139987	          0.29995930	          0.49511206	          0.10480654	          0.04192706	          0.15284554	          0.16366766	          0.21976619	          0.10756914	          0.05394039	          0.02936953	          0.05927866	          0.10583486	          0.01272246	
          0.58703703	          0.27233944	          0.44327168	          0.37857094	          0.46381486	          0.29332703	          0.30172808	          0.60352289	          0.38984528	          0.60038200	          0.17930856	          0.00600668	          0.10585968	          0.14403859	          0.27472918	          0.01334800	          0.00728486	          0.44720725	          0.29428834	          0.54582015	          0.04275653	          0.09666115	          0.77701969	          0.47306746	          0.59203535	          0.35409958	          0.02041498	          0.63593302	          0.29680151	          0.64082813	         -0.04722512	          0.03213149	          0.84521288	          0.54209679	          0.65498813	          0.42920545	          0.25483488	          0.35839436	          0.30532992	          0.50100023	          0.10965961	          0.11567871	          0.15041766	          0.16386974	          0.22003791	          0.10770157	          0.03660111	          0.02913702	          0.05946427	          0.10693565	          0.01199289	
          0.58796299	          0.25004576	          0.44111146	          0.37816861	          0.46368273	          0.29265450	          0.28704201	          0.60924607	          0.39456576	          0.60787497	          0.18125655	          0.01724567	          0.10323756	          0.14259726	          0.27254078	          0.01265374	          0.03943624	          0.45670615	          0.29976770	          0.55637863	          0.04315677	          0.07067902	          0.77350310	          0.47156322	          0.59080885	          0.35231759	          0.00606080	          0.64829362	          0.29961619	          0.64685497	         -0.04762259	          0.07650347	          0.83286200	          0.53898275	          0.65111645	          0.42684904	          0.30537082	          0.36533313	          0.31071413	          0.50687248	          0.11455578	          0.08344970	          0.14799751	          0.16406807	          0.22030415	          0.10783199	          0.01666980	          0.02893211	          0.05969802	          0.10813675	          0.01125929	
          0.58888888	          0.15257728	          0.43870588	          0.37774140	          0.46352924	          0.29195355	          0.02309254	          0.61474017	          0.39926618	          0.61534339	          0.18318897	          0.06120816	          0.10064500	          0.14118622	          0.27039081	          0.01198164	          0.03509127	          0.46632091	          0.30522284	          0.56689900	          0.04354668	          0.24023902	          0.76975884	          0.47008026	          0.58962363	          0.35053688	          0.05439902	          0.66031760	          0.30238211	          0.65277088	         -0.04800665	          0.27839484	          0.82023959	          0.53585392	          0.64723409	          0.42447376	          0.27265848	          0.37221042	          0.31610760	          0.51272450	          0.11949070	          0.02906741	          0.14559250	          0.16426262	          0.22056486	          0.10796039	          0.00173047	          0.02875313	          0.05997824	          0.10943478	          0.01052170	
          0.58981478	          0.02737552	          0.43606181	          0.37728950	          0.46335447	          0.29122454	          0.28255700	          0.62000101	          0.40394455	          0.62278412	          0.18510498	          0.09208259	          0.09808619	          0.13980554	          0.26827934	          0.01133174	          0.00295174	          0.47605292	          0.31064880	          0.57737169	          0.04392591	          0.51986768	          0.76579091	          0.46861854	          0.58847949	          0.34875759	          0.07852895	          0.67198407	          0.30509672	          0.65857086	         -0.04837742	          0.51003918	          0.80737226	          0.53271091	          0.64334174	          0.42208008	          0.12603853	          0.37902058	          0.32150650	          0.51855251	          0.12446049	          0.05038867	          0.14320993	          0.16445339	          0.22082004	          0.10808674	          0.00003688	          0.02859848	          0.06030324	          0.11082646	          0.00978002	
          0.59074074	          0.17230645	          0.43318684	          0.37681282	          0.46315818	          0.29046746	          0.35279193	          0.62502466	          0.40859854	          0.63019380	          0.18700328	          0.07513964	          0.09556526	          0.13845523	          0.26620646	          0.01070400	          0.01853183	          0.48590326	          0.31604010	          0.58778611	          0.04429409	          0.11844395	          0.76160396	          0.46717805	          0.58737623	          0.34697986	          0.02186710	          0.68327260	          0.30775750	          0.66424969	         -0.04873469	          0.14814526	          0.79428658	          0.52955413	          0.63943993	          0.41966833	          0.03329732	          0.38575811	          0.32690707	          0.52435291	          0.12946123	          0.03918151	          0.14085697	          0.16464034	          0.22106966	          0.10821101	          0.00404752	          0.02846659	          0.06067134	          0.11230845	          0.00903423	
          0.59166670	          0.35279701	          0.43008921	          0.37631142	          0.46294030	          0.28968254	          0.20980381	          0.62980747	          0.41322529	          0.63756812	          0.18888247	          0.06051664	          0.09308631	          0.13713549	          0.26417249	          0.01009849	          0.05612461	          0.49587265	          0.32139090	          0.59813082	          0.04465097	          0.21244731	          0.75720324	          0.46575889	          0.58631384	          0.34520394	          0.01468794	          0.69416323	          0.31036153	          0.66980153	         -0.04907846	          0.17278749	          0.78100896	          0.52638423	          0.63552947	          0.41723900	          0.15185122	          0.39241764	          0.33230466	          0.53012107	          0.13448824	          0.00170306	          0.13854069	          0.16482346	          0.22131372	          0.10833320	          0.00488064	          0.02835596	          0.06108073	          0.11387702	          0.00828443	
          0.59259260	          0.29526530	          0.42677783	          0.37578532	          0.46270068	          0.28886996	          0.01115044	          0.63434597	          0.41782218	          0.64490290	          0.19074146	          0.05709110	          0.09065339	          0.13584648	          0.26217771	          0.00951526	          0.22653340	          0.50596146	          0.32669488	          0.60839364	          0.04499611	          0.13655589	          0.75259463	          0.46436137	          0.58529236	          0.34343038	          0.22416806	          0.70463656	          0.31290597	          0.67522046	         -0.04940853	          0.08013681	          0.76756553	          0.52320218	          0.63161153	          0.41479284	          0.28975853	          0.39899392	          0.33769464	          0.53585245	          0.13953684	          0.00248700	          0.13626799	          0.16500275	          0.22155218	          0.10845332	          0.00318853	          0.02826512	          0.06152958	          0.11552844	          0.00753072	
